<?xml version="1.0" encoding="UTF-8"?>
<svg id="Layer_1" data-name="Layer 1" xmlns="http://www.w3.org/2000/svg" viewBox="0 0 694.38 740.51">
  <defs>
    <style>
      .cls-1 {
        fill: #fbbd89;
      }

      .cls-2 {
        fill: #ffdc87;
      }

      .cls-3 {
        fill: none;
        stroke: #fff;
        stroke-miterlimit: 10;
        stroke-width: .25px;
      }
    </style>
  </defs>
  <g>
    <path class="cls-3" d="M452.6,141.81c.09-8.62-11.71,324.43-164.71,445.5-161.32,127.66-223.18,97.3-223.18,97.3"/>
    <path class="cls-3" d="M458.33,138.94s-3.38,317.84-164.71,445.5c-161.32,127.66-223.18,97.3-223.18,97.3"/>
    <path class="cls-3" d="M470.67,127.44s-3.38,317.84-164.71,445.5c-161.32,127.66-223.18,97.3-223.18,97.3"/>
    <path class="cls-3" d="M485.56,111.84s-3.38,317.84-164.71,445.5c-161.32,127.66-223.18,97.3-223.18,97.3"/>
    <path class="cls-3" d="M497.73,103.73s-3.38,317.84-164.71,445.5c-161.32,127.66-223.18,97.3-223.18,97.3"/>
    <path class="cls-3" d="M512.39,92.33s-3.38,317.84-164.71,445.5c-161.32,127.66-223.18,97.3-223.18,97.3"/>
    <path class="cls-3" d="M528.75,82.23s-3.38,317.84-164.71,445.5c-161.32,127.66-223.18,97.3-223.18,97.3"/>
  </g>
  <g>
    <path class="cls-3" d="M694.29,280.75s-67.62-70.3-158.75,179.07c-91.13,249.37-211.97,165.85-211.97,165.85"/>
    <path class="cls-3" d="M686.3,274.39s-70.55-67.36-151.01,185.65c-80.46,253.01-204.74,174.7-204.74,174.7"/>
    <path class="cls-3" d="M680.91,271.93s-72.5-65.25-145.46,190.02c-72.96,255.28-199.5,180.66-199.5,180.66"/>
    <path class="cls-3" d="M676.33,275.38s-73.62-63.99-142.15,192.51c-68.53,256.5-196.34,184.09-196.34,184.09"/>
    <path class="cls-3" d="M668.59,273.93s-75.68-61.54-135.76,197.07c-60.08,258.61-190.2,190.43-190.2,190.43"/>
    <path class="cls-3" d="M660.12,273.68s-77.7-58.97-129.08,201.51c-51.38,260.48-183.71,196.7-183.71,196.7"/>
    <path class="cls-3" d="M653.02,271.58s-79.54-56.47-122.61,205.51c-43.07,261.98-177.36,202.44-177.36,202.44"/>
  </g>
  <g>
    <path class="cls-3" d="M321.04,78.96c-2.49-9.33,83.54,352.75-71.24,512.8C86.6,760.53.03,739.55.03,739.55"/>
    <path class="cls-3" d="M327.35,74.77s91.97,344.04-71.24,512.8C92.91,756.33,6.34,735.36,6.34,735.36"/>
    <path class="cls-3" d="M339.31,59.98s91.97,344.04-71.24,512.8C104.87,741.55,18.3,720.57,18.3,720.57"/>
    <path class="cls-3" d="M353.22,40.29s91.97,344.04-71.24,512.8c-163.2,168.76-249.78,147.79-249.78,147.79"/>
    <path class="cls-3" d="M365.98,29.2s91.97,344.04-71.24,512.8c-163.2,168.76-249.78,147.79-249.78,147.79"/>
    <path class="cls-3" d="M380.88,14.08s91.97,344.04-71.24,512.8c-163.2,168.76-249.78,147.79-249.78,147.79"/>
    <path class="cls-3" d="M398.29.03s91.97,344.04-71.24,512.8c-163.2,168.76-249.78,147.79-249.78,147.79"/>
  </g>
  <circle class="cls-2" cx="432.35" cy="462.26" r="4.87"/>
  <circle class="cls-2" cx="405.7" cy="451.76" r="2.37"/>
  <circle class="cls-2" cx="406.68" cy="500.39" r="3.35"/>
  <circle class="cls-2" cx="319.28" cy="382.87" r="3.51"/>
  <circle class="cls-1" cx="259.41" cy="280.07" r="5.7"/>
  <circle class="cls-1" cx="580.57" cy="558.6" r="5.7"/>
  <circle class="cls-1" cx="523.12" cy="274.36" r="5.7"/>
  <circle class="cls-1" cx="535.26" cy="371" r="5.7"/>
  <circle class="cls-1" cx="485.56" cy="280.07" r="5.7"/>
</svg>