<?xml version="1.0" encoding="UTF-8"?>
<svg id="Layer_1" data-name="Layer 1" xmlns="http://www.w3.org/2000/svg" xmlns:xlink="http://www.w3.org/1999/xlink" viewBox="0 0 111.46 111.3">
  <defs>
    <style>
      .cls-1 {
        fill: url(#linear-gradient-2);
      }

      .cls-2 {
        fill: #e9293a;
      }

      .cls-3 {
        fill: #231f20;
      }

      .cls-4 {
        fill: url(#linear-gradient);
      }
    </style>
    <linearGradient id="linear-gradient" x1="53.98" y1="92.68" x2="99.91" y2="13.13" gradientUnits="userSpaceOnUse">
      <stop offset=".31" stop-color="#e8283a"/>
      <stop offset=".5" stop-color="#eb392d"/>
      <stop offset=".63" stop-color="#ee4823"/>
      <stop offset=".88" stop-color="#f9aa65"/>
      <stop offset="1" stop-color="#ffdc87"/>
    </linearGradient>
    <linearGradient id="linear-gradient-2" x1="-11.61" y1="73.55" x2="25.85" y2="8.67" xlink:href="#linear-gradient"/>
  </defs>
  <g>
    <g>
      <path class="cls-3" d="M.55,85.98h1.35v7.28H.55v-7.28Z"/>
      <path class="cls-3" d="M8.57,88.26c.42.41.63,1.02.63,1.82v3.18h-1.3v-3.01c0-.49-.11-.85-.34-1.1-.23-.25-.55-.37-.98-.37-.48,0-.86.14-1.13.43-.28.29-.42.7-.42,1.24v2.81h-1.3v-5.55h1.24v.72c.21-.26.48-.45.81-.58.33-.13.69-.2,1.1-.2.7,0,1.26.2,1.68.61Z"/>
      <path class="cls-3" d="M14.2,92.96c-.15.12-.34.22-.56.28-.22.06-.45.09-.69.09-.61,0-1.08-.16-1.41-.48s-.5-.78-.5-1.39v-2.67h-.91v-1.04h.91v-1.27h1.3v1.27h1.49v1.04h-1.49v2.64c0,.27.07.48.2.62.13.14.32.21.57.21.29,0,.53-.08.73-.23l.36.93Z"/>
      <path class="cls-3" d="M20.28,90.9h-4.36c.08.41.28.73.6.97.32.24.72.36,1.2.36.61,0,1.11-.2,1.51-.6l.7.8c-.25.3-.57.52-.95.68-.38.15-.81.23-1.29.23-.61,0-1.15-.12-1.61-.36-.46-.24-.82-.58-1.08-1.01-.25-.43-.38-.92-.38-1.47s.12-1.03.37-1.46c.25-.43.59-.77,1.02-1.01.44-.24.93-.36,1.48-.36s1.02.12,1.45.36c.43.24.76.58,1,1.01.24.43.36.93.36,1.5,0,.09,0,.22-.02.38ZM16.44,89.05c-.29.25-.46.57-.52.98h3.15c-.06-.4-.23-.73-.51-.98s-.64-.37-1.06-.37-.77.12-1.06.37Z"/>
      <path class="cls-3" d="M21.55,85.54h1.3v7.71h-1.3v-7.71Z"/>
      <path class="cls-3" d="M24.61,86.57c-.16-.15-.24-.33-.24-.56s.08-.41.24-.56c.16-.15.36-.22.59-.22s.43.07.59.21c.16.14.24.32.24.54,0,.23-.08.42-.23.58-.16.16-.36.23-.6.23s-.43-.07-.59-.22ZM24.55,87.71h1.3v5.55h-1.3v-5.55Z"/>
      <path class="cls-3" d="M33.06,87.71v4.71c0,1.95-1,2.93-2.99,2.93-.53,0-1.04-.07-1.52-.2s-.87-.33-1.18-.59l.58-.98c.24.2.55.36.92.48.37.12.75.18,1.13.18.61,0,1.06-.14,1.34-.42s.43-.7.43-1.27v-.29c-.22.24-.49.43-.81.55-.32.12-.67.19-1.05.19-.53,0-1-.11-1.43-.34-.43-.23-.76-.54-1.01-.95-.25-.41-.37-.88-.37-1.4s.12-.99.37-1.4c.25-.41.58-.72,1.01-.94.43-.22.9-.33,1.43-.33.4,0,.77.07,1.1.2.33.13.6.33.83.6v-.74h1.24ZM31.31,91.47c.32-.29.47-.68.47-1.15s-.16-.84-.47-1.13-.72-.44-1.21-.44-.91.15-1.22.44c-.32.29-.47.67-.47,1.13s.16.85.47,1.15c.32.29.72.44,1.22.44s.9-.15,1.21-.44Z"/>
      <path class="cls-3" d="M39.97,90.9h-4.36c.08.41.28.73.6.97.32.24.72.36,1.2.36.61,0,1.11-.2,1.51-.6l.7.8c-.25.3-.57.52-.95.68-.38.15-.81.23-1.29.23-.61,0-1.15-.12-1.61-.36-.46-.24-.82-.58-1.08-1.01-.25-.43-.38-.92-.38-1.47s.12-1.03.37-1.46c.25-.43.59-.77,1.02-1.01.44-.24.93-.36,1.48-.36s1.02.12,1.45.36c.43.24.76.58,1,1.01.24.43.36.93.36,1.5,0,.09,0,.22-.02.38ZM38.06,86.95l-.92-.77-.91.77h-1.07l1.39-1.42h1.18l1.39,1.42h-1.07ZM36.13,89.05c-.29.25-.46.57-.52.98h3.15c-.06-.4-.23-.73-.51-.98s-.64-.37-1.06-.37-.77.12-1.06.37Z"/>
      <path class="cls-3" d="M46.07,88.26c.42.41.63,1.02.63,1.82v3.18h-1.3v-3.01c0-.49-.11-.85-.34-1.1-.23-.25-.55-.37-.98-.37-.48,0-.86.14-1.13.43-.28.29-.42.7-.42,1.24v2.81h-1.3v-5.55h1.24v.72c.21-.26.48-.45.81-.58.33-.13.69-.2,1.1-.2.7,0,1.26.2,1.68.61Z"/>
      <path class="cls-3" d="M49.4,92.97c-.46-.24-.81-.58-1.07-1.01-.26-.43-.38-.92-.38-1.47s.13-1.04.38-1.47c.26-.43.61-.77,1.07-1.01.45-.24.97-.36,1.55-.36.55,0,1.03.11,1.44.33.41.22.72.54.93.96l-1,.58c-.16-.26-.36-.45-.6-.58-.24-.13-.5-.19-.79-.19-.49,0-.89.16-1.21.47-.32.32-.48.74-.48,1.26s.16.95.47,1.26c.32.32.72.47,1.21.47.28,0,.55-.06.79-.19.24-.13.44-.32.6-.58l1,.58c-.21.42-.53.74-.94.96-.41.23-.89.34-1.43.34-.58,0-1.09-.12-1.55-.36Z"/>
      <path class="cls-3" d="M54.51,86.57c-.16-.15-.24-.33-.24-.56s.08-.41.24-.56c.16-.15.36-.22.59-.22s.43.07.59.21c.16.14.24.32.24.54,0,.23-.08.42-.23.58-.16.16-.36.23-.6.23s-.43-.07-.59-.22ZM54.45,87.71h1.3v5.55h-1.3v-5.55Z"/>
      <path class="cls-3" d="M61.45,88.23c.43.39.65.98.65,1.77v3.25h-1.23v-.68c-.16.24-.39.43-.68.56-.29.13-.65.19-1.07.19s-.78-.07-1.09-.21c-.31-.14-.55-.34-.72-.59-.17-.25-.25-.54-.25-.86,0-.5.19-.9.56-1.2.37-.3.95-.45,1.75-.45h1.43v-.08c0-.39-.12-.69-.35-.89s-.58-.31-1.03-.31c-.31,0-.62.05-.92.15-.3.1-.56.23-.76.41l-.51-.95c.29-.22.64-.39,1.05-.51.41-.12.84-.18,1.3-.18.82,0,1.44.2,1.88.59ZM60.26,92.16c.25-.15.43-.36.54-.64v-.64h-1.34c-.75,0-1.12.25-1.12.74,0,.24.09.42.28.56.19.14.45.21.78.21s.61-.07.87-.22Z"/>
      <path class="cls-3" d="M1.37,103.36c-.43-.23-.77-.55-1.01-.95-.24-.41-.36-.87-.36-1.39s.12-.98.36-1.38c.24-.4.58-.72,1-.95.43-.23.92-.34,1.46-.34.52,0,.97.1,1.36.31.39.21.68.51.88.9l-.94.55c-.15-.24-.34-.42-.56-.54-.23-.12-.47-.18-.74-.18-.46,0-.84.15-1.14.45-.3.3-.45.69-.45,1.19s.15.89.45,1.19c.3.3.68.45,1.14.45.27,0,.51-.06.74-.18.22-.12.41-.3.56-.54l.94.55c-.2.39-.5.69-.89.91-.39.21-.84.32-1.35.32-.54,0-1.03-.11-1.46-.34Z"/>
      <path class="cls-3" d="M6.96,103.36c-.42-.23-.76-.55-.99-.95-.24-.41-.36-.87-.36-1.39s.12-.98.36-1.38.57-.72.99-.95c.42-.23.9-.34,1.43-.34s1.01.11,1.44.34c.42.23.76.55.99.95s.36.86.36,1.38-.12.98-.36,1.39c-.24.41-.57.73-.99.95-.42.23-.9.34-1.44.34s-1.01-.11-1.43-.34ZM9.51,102.21c.29-.3.44-.7.44-1.18s-.15-.88-.44-1.18-.67-.45-1.12-.45-.82.15-1.11.45-.44.7-.44,1.18.15.88.44,1.18.66.45,1.11.45.82-.15,1.12-.45Z"/>
      <path class="cls-3" d="M20.52,98.92c.39.38.58.95.58,1.72v3h-1.22v-2.84c0-.46-.1-.8-.3-1.03-.2-.23-.49-.35-.87-.35-.41,0-.74.14-.99.41-.25.27-.37.66-.37,1.16v2.65h-1.22v-2.84c0-.46-.1-.8-.3-1.03-.2-.23-.49-.35-.87-.35-.42,0-.75.13-.99.4-.24.27-.37.66-.37,1.17v2.65h-1.22v-5.23h1.17v.67c.2-.23.44-.41.73-.54.29-.12.62-.19.98-.19.39,0,.74.07,1.04.22s.54.36.72.65c.22-.27.49-.49.83-.64.34-.15.71-.23,1.13-.23.66,0,1.18.19,1.57.57Z"/>
      <path class="cls-3" d="M29.93,102.05h-3.43l-.68,1.59h-1.31l3.08-6.85h1.25l3.09,6.85h-1.33l-.69-1.59ZM29.51,101.05l-1.29-3-1.28,3h2.57Z"/>
      <path class="cls-3" d="M35.8,103.35c-.14.12-.32.21-.52.26-.21.06-.42.09-.65.09-.57,0-1.02-.15-1.33-.45s-.47-.74-.47-1.31v-2.52h-.86v-.98h.86v-1.19h1.22v1.19h1.4v.98h-1.4v2.49c0,.25.06.45.19.58.12.13.3.2.54.2.27,0,.5-.07.69-.22l.34.87Z"/>
      <path class="cls-3" d="M36.86,97.34c-.15-.14-.22-.31-.22-.52s.07-.38.22-.52c.15-.14.34-.21.56-.21s.41.07.56.2c.15.13.22.3.22.5,0,.22-.07.4-.22.54-.15.15-.33.22-.56.22s-.41-.07-.56-.21ZM36.81,98.41h1.22v5.23h-1.22v-5.23Z"/>
      <path class="cls-3" d="M42.78,103.35c-.14.12-.32.21-.52.26-.21.06-.42.09-.65.09-.57,0-1.02-.15-1.33-.45s-.47-.74-.47-1.31v-2.52h-.86v-.98h.86v-1.19h1.22v1.19h1.4v.98h-1.4v2.49c0,.25.06.45.19.58.12.13.3.2.54.2.27,0,.5-.07.69-.22l.34.87Z"/>
      <path class="cls-3" d="M48.85,98.41v5.23h-1.17v-.67c-.2.24-.44.42-.73.54-.29.13-.61.19-.95.19-.7,0-1.25-.19-1.65-.58-.4-.39-.6-.96-.6-1.73v-2.99h1.22v2.82c0,.47.11.82.32,1.05.21.23.51.35.91.35.44,0,.78-.14,1.04-.41.26-.27.39-.66.39-1.17v-2.64h1.22Z"/>
      <path class="cls-3" d="M55.58,96.37v7.27h-1.18v-.68c-.2.25-.45.43-.75.56s-.63.19-.98.19c-.5,0-.95-.11-1.36-.33-.4-.22-.72-.54-.94-.94-.23-.41-.34-.88-.34-1.41s.11-1,.34-1.4c.23-.4.54-.72.94-.94.4-.22.85-.33,1.36-.33.35,0,.66.06.95.18s.53.29.73.53v-2.68h1.22ZM53.61,102.46c.23-.13.42-.32.56-.57s.21-.54.21-.86-.07-.61-.21-.86c-.14-.25-.32-.44-.56-.57-.23-.13-.5-.2-.79-.2s-.56.07-.79.2c-.23.13-.42.32-.56.57-.14.25-.21.54-.21.86s.07.61.21.86.32.44.56.57.5.2.79.2.56-.07.79-.2Z"/>
      <path class="cls-3" d="M62.08,101.41h-4.1c.07.39.26.69.56.92.3.23.68.34,1.13.34.57,0,1.05-.19,1.42-.57l.66.75c-.23.28-.53.49-.89.64-.36.14-.76.22-1.21.22-.57,0-1.08-.11-1.52-.34-.44-.23-.77-.55-1.01-.95-.24-.41-.36-.87-.36-1.39s.12-.97.35-1.38c.23-.41.55-.73.96-.95.41-.23.87-.34,1.39-.34s.96.11,1.37.34c.4.23.71.54.94.95.23.41.34.88.34,1.41,0,.08,0,.21-.02.36ZM58.46,99.68c-.27.23-.44.54-.49.93h2.97c-.05-.38-.21-.69-.48-.92s-.6-.35-1-.35-.72.12-.99.35Z"/>
    </g>
    <g>
      <path class="cls-2" d="M110.55,99.65l.64-14.18h-4.34l.64,14.18h3.06ZM108.41,105.27c1.34-.36,1.98-.63,3.03-1.37.05-.04,0-.12-.05-.09-1.17.52-1.86.57-3.25.65-.03,0-.03-.03,0-.03,1.37-.34,2.2-.69,3.3-1.47.04-.03,0-.09-.04-.07-1.22.54-2.1.68-3.49.72-.02,0-.03-.03,0-.03,1.16-.18,2.2-.62,3.13-1.32.04-.03,0-.09-.04-.07-1.04.48-2.12.66-3.26.57-.02,0-.03-.03,0-.03.99-.21,1.87-.48,2.69-.99.02-.01.02-.03,0-.05-.46-.31-1.02-.46-1.62-.4-1.43.14-2.44,1.5-2.2,2.92.23,1.38,1.48,2.28,2.86,2.04.92-.16,1.62-.77,1.92-1.55,0-.02-.01-.04-.03-.03-.9.42-1.83.63-2.91.65-.03,0-.04-.03-.01-.03ZM100.08,93.81c-1.61-.34-3.44-1.26-3.44-2.84v-.03c0-1.08.64-2.35,2.84-2.35,1.01,0,2.76.7,3.31,2.01l3.15-2.11c-1.54-2.32-3.83-3.25-6.22-3.25-1.81,0-3.59.63-4.86,1.77v-1.52h-11.8l-4.45,8.03-3.91-8.03h-4.47l6.14,11.88-4.82,8.68h4.47l7.96-14.24v14.24h10.88v-1.16c1.32.94,2.85,1.41,4.37,1.41,3.36,0,6.69-2.14,7-5.6.18-4.35-2.94-6.27-6.15-6.87ZM95.7,100.55l-2.3,1.76h-5.58v-4.59h3.94v-3.72h-3.94v-4.77h5.5c-.18.49-.29,1.02-.33,1.58-.05,4.06,2.94,6.2,5.83,6.64,1.52.17,3.54,1.14,3.54,2.96,0,2.28-4.77,3.01-6.67.13Z"/>
      <g>
        <g>
          <path class="cls-2" d="M74.6,109.85v-.38h4.8s0,.38,0,.38h-4.8Z"/>
          <path class="cls-2" d="M102.25,109.85v-.38h4.8s0,.38,0,.38h-4.8Z"/>
        </g>
        <g>
          <path class="cls-2" d="M81.67,110.8h-.38v-2.33h.38v2.33Z"/>
          <path class="cls-2" d="M84.1,108.46c.45,0,.87.22.87.74v.88c0,.51-.42.72-.87.72h-.84v-2.33h.84ZM84.1,110.42c.26,0,.49-.1.49-.34v-.88c0-.25-.23-.35-.49-.35h-.46v1.57h.46Z"/>
          <path class="cls-2" d="M86.9,110.8h-.38v-2.33h.38v2.33Z"/>
          <path class="cls-2" d="M88.43,109.19c0-.5.47-.75.94-.75s.95.25.95.75v.89c0,.5-.47.76-.95.76s-.94-.25-.94-.76v-.89ZM88.81,110.07c0,.25.28.38.56.38s.57-.13.57-.38v-.88c0-.27-.28-.38-.57-.38-.28,0-.56.12-.56.38v.88Z"/>
          <path class="cls-2" d="M91.85,108.46h.43l.64,1.52.65-1.52h.43v2.33h-.38v-1.61l-.54,1.29h-.3l-.54-1.29v1.61h-.38v-2.33Z"/>
          <path class="cls-2" d="M97.45,110.8h-.4l-.23-.61h-.84l-.21.61h-.41l.84-2.33h.4l.84,2.33ZM96.4,108.85l-.1.38-.19.58h.58l-.19-.59-.09-.37h-.01Z"/>
          <path class="cls-2" d="M99.56,109.41c.41.08.86.22.83.77-.02.45-.44.65-.87.65-.36,0-.71-.19-.87-.56l.35-.16c.1.22.31.34.53.34.24,0,.46-.1.48-.3.02-.26-.24-.32-.53-.37-.38-.08-.79-.22-.79-.69.03-.43.43-.66.84-.66.35,0,.68.14.84.5l-.35.15c-.1-.22-.28-.28-.49-.28-.23,0-.45.11-.45.3s.24.25.49.29Z"/>
        </g>
      </g>
    </g>
    <g>
      <path class="cls-3" d="M.73,110.24c-.23-.12-.41-.3-.54-.52-.13-.22-.19-.47-.19-.74s.07-.52.2-.74c.13-.22.31-.39.54-.52.23-.12.48-.19.77-.19.23,0,.44.04.63.12.19.08.35.2.48.35l-.34.32c-.2-.22-.45-.33-.75-.33-.19,0-.37.04-.52.13s-.27.2-.36.35c-.09.15-.13.32-.13.51s.04.36.13.51c.09.15.2.27.36.35.15.08.33.13.52.13.3,0,.55-.11.75-.33l.34.32c-.13.15-.29.27-.48.35-.19.08-.4.12-.63.12-.28,0-.54-.06-.77-.19Z"/>
      <path class="cls-3" d="M5.44,110.24c-.23-.12-.41-.3-.54-.52-.13-.22-.2-.47-.2-.74s.07-.52.2-.74c.13-.22.31-.39.54-.52.23-.12.49-.19.77-.19s.54.06.77.19c.23.12.41.3.54.52.13.22.2.47.2.74s-.07.52-.2.74c-.13.22-.31.39-.54.52-.23.12-.49.19-.77.19s-.54-.06-.77-.19ZM6.72,109.84c.15-.08.27-.2.35-.35.09-.15.13-.32.13-.51s-.04-.36-.13-.51c-.09-.15-.2-.27-.35-.35-.15-.08-.32-.13-.51-.13s-.36.04-.51.13-.27.2-.35.35c-.09.15-.13.32-.13.51s.04.36.13.51c.09.15.2.27.35.35.15.08.32.13.51.13s.36-.04.51-.13Z"/>
      <path class="cls-3" d="M12.62,107.58v2.81h-.43l-1.55-1.9v1.9h-.52v-2.81h.43l1.55,1.9v-1.9h.52Z"/>
      <path class="cls-3" d="M17.76,107.58l-1.22,2.81h-.51l-1.23-2.81h.57l.94,2.17.94-2.17h.52Z"/>
      <path class="cls-3" d="M22.01,109.95v.44h-2.11v-2.81h2.05v.44h-1.53v.73h1.36v.43h-1.36v.77h1.58Z"/>
      <path class="cls-3" d="M26.93,107.58v2.81h-.43l-1.55-1.9v1.9h-.52v-2.81h.43l1.55,1.9v-1.9h.52Z"/>
      <path class="cls-3" d="M30.06,110.24c-.23-.12-.41-.3-.54-.52-.13-.22-.19-.47-.19-.74s.07-.52.2-.74c.13-.22.31-.39.54-.52.23-.12.48-.19.77-.19.23,0,.44.04.63.12.19.08.35.2.48.35l-.34.32c-.2-.22-.45-.33-.75-.33-.19,0-.37.04-.52.13s-.27.2-.36.35c-.09.15-.13.32-.13.51s.04.36.13.51c.09.15.2.27.36.35.15.08.33.13.52.13.3,0,.55-.11.75-.33l.34.32c-.13.15-.29.27-.48.35-.19.08-.4.12-.63.12-.28,0-.54-.06-.77-.19ZM30.27,111.22l.09-.24c.08.04.17.06.27.06.14,0,.21-.05.21-.15,0-.04-.02-.07-.05-.1s-.09-.04-.16-.04h-.12l.11-.41h.27l-.06.22c.11.01.2.05.26.11.06.06.09.14.09.23,0,.11-.05.21-.15.28-.1.07-.23.1-.4.1-.14,0-.27-.03-.37-.08Z"/>
      <path class="cls-3" d="M36.04,109.74h-1.4l-.28.65h-.54l1.26-2.81h.51l1.27,2.81h-.55l-.28-.65ZM35.46,107.31s-.11-.07-.18-.12c-.04-.03-.08-.06-.11-.08-.03-.02-.06-.03-.08-.03-.06,0-.1.02-.14.06-.04.04-.06.1-.06.18h-.27c0-.16.04-.29.12-.39.08-.1.18-.15.31-.15.07,0,.13.01.17.04.05.03.11.07.18.12.04.03.08.06.11.08.03.02.06.03.08.03.06,0,.1-.02.14-.06.04-.04.06-.1.06-.17h.27c0,.16-.05.28-.12.38-.08.1-.18.14-.31.14-.07,0-.13-.01-.17-.04ZM35.87,109.33l-.53-1.23-.53,1.23h1.06Z"/>
      <path class="cls-3" d="M39.57,110.24c-.23-.12-.41-.3-.54-.52-.13-.22-.2-.47-.2-.74s.07-.52.2-.74c.13-.22.31-.39.54-.52.23-.12.49-.19.77-.19s.54.06.77.19c.23.12.41.3.54.52.13.22.2.47.2.74s-.07.52-.2.74c-.13.22-.31.39-.54.52-.23.12-.49.19-.77.19s-.54-.06-.77-.19ZM40.85,109.84c.15-.08.27-.2.35-.35.09-.15.13-.32.13-.51s-.04-.36-.13-.51c-.09-.15-.2-.27-.35-.35-.15-.08-.32-.13-.51-.13s-.36.04-.51.13-.27.2-.35.35c-.09.15-.13.32-.13.51s.04.36.13.51c.09.15.2.27.35.35.15.08.32.13.51.13s.36-.04.51-.13Z"/>
      <path class="cls-3" d="M49.04,109.95v.44h-2.07v-.35l1.12-1.06c.13-.12.21-.23.25-.31.04-.09.07-.18.07-.27,0-.13-.04-.23-.13-.3-.09-.07-.22-.1-.39-.1-.29,0-.51.1-.66.29l-.37-.28c.11-.15.26-.26.44-.34s.39-.12.62-.12c.31,0,.55.07.73.22.18.14.27.34.27.59,0,.15-.03.3-.1.43s-.19.29-.37.46l-.75.71h1.32Z"/>
      <path class="cls-3" d="M51.74,110.26c-.18-.11-.32-.28-.42-.5-.1-.22-.15-.48-.15-.78s.05-.56.15-.78c.1-.22.24-.38.42-.5.18-.11.38-.17.6-.17s.43.06.6.17.32.28.42.5.15.48.15.78-.05.56-.15.78c-.1.22-.24.38-.42.5s-.38.17-.6.17-.43-.06-.6-.17ZM52.81,109.73c.12-.17.17-.41.17-.74s-.06-.58-.17-.74-.27-.25-.48-.25-.36.08-.47.25-.17.41-.17.74.06.58.17.74.27.25.47.25.36-.08.48-.25Z"/>
      <path class="cls-3" d="M57.72,109.95v.44h-2.07v-.35l1.12-1.06c.13-.12.21-.23.25-.31.04-.09.07-.18.07-.27,0-.13-.04-.23-.13-.3-.09-.07-.22-.1-.39-.1-.29,0-.51.1-.66.29l-.37-.28c.11-.15.26-.26.44-.34s.39-.12.62-.12c.31,0,.55.07.73.22.18.14.27.34.27.59,0,.15-.03.3-.1.43s-.19.29-.37.46l-.75.71h1.32Z"/>
      <path class="cls-3" d="M61.63,108.76c.15.07.26.17.35.3.08.13.12.28.12.45,0,.18-.05.34-.14.48-.09.14-.21.24-.37.32-.16.08-.33.11-.52.11-.39,0-.68-.12-.9-.36-.21-.24-.32-.59-.32-1.04,0-.32.06-.59.17-.81s.28-.39.48-.51.45-.17.72-.17c.14,0,.28.02.41.05.13.03.24.08.33.13l-.19.39c-.14-.09-.32-.14-.53-.14-.27,0-.48.08-.63.25s-.23.41-.23.72h0c.08-.09.19-.17.32-.21.13-.05.27-.07.43-.07.18,0,.35.04.5.11ZM61.44,109.89c.1-.09.15-.2.15-.35s-.05-.26-.15-.35c-.1-.09-.24-.13-.41-.13s-.31.05-.41.14c-.11.09-.16.21-.16.35s.05.25.15.34c.1.09.25.13.43.13.16,0,.3-.04.4-.13Z"/>
    </g>
  </g>
  <g>
    <path class="cls-4" d="M44.15,76.31h-18.53S59.74,0,59.74,0h17.44s34.01,76.31,34.01,76.31h-18.1s-6.76-16.35-6.76-16.35h-35.43s-6.76,16.35-6.76,16.35ZM80.67,46.55l-12.1-29.22-12.1,29.22h24.2Z"/>
    <path class="cls-1" d="M17.66,76.31H0V0h17.66v76.31Z"/>
  </g>
</svg>