<?xml version="1.0" encoding="UTF-8"?>
<svg id="Layer_1" data-name="Layer 1" xmlns="http://www.w3.org/2000/svg" xmlns:xlink="http://www.w3.org/1999/xlink" viewBox="0 0 430.54 72.81">
  <defs>
    <style>
      .cls-1 {
        fill: url(#linear-gradient-2);
      }

      .cls-2 {
        fill: #e9293a;
      }

      .cls-3 {
        fill: #282828;
      }

      .cls-4 {
        fill: url(#linear-gradient);
      }
    </style>
    <linearGradient id="linear-gradient" x1="51.51" y1="88.44" x2="95.34" y2="12.52" gradientUnits="userSpaceOnUse">
      <stop offset=".31" stop-color="#e8283a"/>
      <stop offset=".5" stop-color="#eb392d"/>
      <stop offset=".63" stop-color="#ee4823"/>
      <stop offset=".88" stop-color="#f9aa65"/>
      <stop offset="1" stop-color="#ffdc87"/>
    </linearGradient>
    <linearGradient id="linear-gradient-2" x1="-11.07" y1="70.18" x2="24.67" y2="8.27" xlink:href="#linear-gradient"/>
  </defs>
  <g>
    <g>
      <path class="cls-3" d="M120.76,2.09h3.77v20.32h-3.77V2.09Z"/>
      <path class="cls-3" d="M143.17,8.45c1.18,1.14,1.77,2.84,1.77,5.08v8.88h-3.63v-8.42c0-1.35-.32-2.38-.96-3.06-.64-.69-1.55-1.03-2.73-1.03-1.34,0-2.39.4-3.16,1.2-.77.8-1.16,1.96-1.16,3.47v7.84h-3.63V6.91h3.45v2c.6-.72,1.35-1.26,2.26-1.63.91-.37,1.93-.55,3.08-.55,1.95,0,3.52.57,4.7,1.71Z"/>
      <path class="cls-3" d="M158.88,21.57c-.43.35-.94.61-1.55.78-.61.17-1.25.26-1.93.26-1.7,0-3.02-.44-3.95-1.34s-1.39-2.19-1.39-3.89v-7.46h-2.55v-2.9h2.55v-3.54h3.63v3.54h4.15v2.9h-4.15v7.37c0,.75.18,1.33.55,1.73.37.4.9.59,1.6.59.81,0,1.49-.21,2.03-.64l1.02,2.58Z"/>
      <path class="cls-3" d="M175.86,15.82h-12.16c.21,1.14.77,2.05,1.67,2.71.9.67,2.02,1,3.35,1,1.7,0,3.11-.56,4.21-1.68l1.95,2.24c-.7.83-1.58,1.46-2.64,1.89-1.07.43-2.26.64-3.6.64-1.7,0-3.2-.34-4.5-1.02-1.3-.68-2.3-1.62-3-2.83-.71-1.21-1.06-2.58-1.06-4.11s.34-2.87,1.03-4.08c.69-1.21,1.64-2.15,2.86-2.83,1.22-.68,2.59-1.02,4.12-1.02s2.86.33,4.05,1c1.19.67,2.12,1.61,2.79,2.82.67,1.21,1,2.61,1,4.2,0,.25-.02.61-.06,1.07ZM165.14,10.67c-.8.69-1.29,1.6-1.47,2.74h8.8c-.16-1.12-.63-2.03-1.42-2.73s-1.78-1.05-2.96-1.05-2.14.34-2.95,1.03Z"/>
      <path class="cls-3" d="M179.41.87h3.63v21.54h-3.63V.87Z"/>
      <path class="cls-3" d="M187.97,3.73c-.45-.42-.67-.93-.67-1.55s.22-1.14.67-1.55c.45-.42,1-.62,1.66-.62s1.21.2,1.66.59c.44.4.67.9.67,1.5,0,.64-.22,1.18-.65,1.61-.43.44-.99.65-1.67.65s-1.21-.21-1.66-.62ZM187.8,6.91h3.63v15.5h-3.63V6.91Z"/>
      <path class="cls-3" d="M211.58,6.91v13.15c0,5.46-2.79,8.19-8.36,8.19-1.49,0-2.9-.19-4.24-.57-1.34-.38-2.44-.92-3.31-1.64l1.63-2.73c.68.56,1.53,1.01,2.57,1.35,1.04.34,2.08.51,3.15.51,1.7,0,2.95-.39,3.75-1.16s1.19-1.95,1.19-3.54v-.81c-.62.68-1.37,1.19-2.27,1.54-.89.35-1.87.52-2.93.52-1.47,0-2.8-.31-3.99-.94-1.19-.63-2.13-1.51-2.82-2.66-.69-1.14-1.03-2.45-1.03-3.92s.34-2.77,1.03-3.91c.69-1.13,1.63-2.01,2.82-2.63,1.19-.62,2.52-.93,3.99-.93,1.12,0,2.14.18,3.06.55.92.37,1.69.93,2.31,1.68v-2.06h3.45ZM206.68,17.41c.88-.82,1.32-1.89,1.32-3.21s-.44-2.35-1.32-3.16c-.88-.81-2.01-1.22-3.38-1.22s-2.53.41-3.41,1.22c-.88.81-1.32,1.87-1.32,3.16s.44,2.39,1.32,3.21c.88.82,2.02,1.23,3.41,1.23s2.5-.41,3.38-1.23Z"/>
      <path class="cls-3" d="M230.85,15.82h-12.16c.21,1.14.77,2.05,1.67,2.71.9.67,2.02,1,3.35,1,1.7,0,3.11-.56,4.21-1.68l1.95,2.24c-.7.83-1.58,1.46-2.64,1.89-1.07.43-2.26.64-3.6.64-1.7,0-3.2-.34-4.5-1.02-1.3-.68-2.3-1.62-3-2.83-.71-1.21-1.06-2.58-1.06-4.11s.34-2.87,1.03-4.08c.69-1.21,1.64-2.15,2.86-2.83,1.22-.68,2.59-1.02,4.12-1.02s2.86.33,4.05,1c1.19.67,2.12,1.61,2.79,2.82.67,1.21,1,2.61,1,4.2,0,.25-.02.61-.06,1.07ZM225.54,4.79l-2.56-2.15-2.55,2.15h-2.99l3.89-3.98h3.31l3.89,3.98h-2.99ZM220.12,10.67c-.8.69-1.29,1.6-1.47,2.74h8.8c-.16-1.12-.63-2.03-1.42-2.73s-1.78-1.05-2.96-1.05-2.14.34-2.95,1.03Z"/>
      <path class="cls-3" d="M247.9,8.45c1.18,1.14,1.77,2.84,1.77,5.08v8.88h-3.63v-8.42c0-1.35-.32-2.38-.96-3.06-.64-.69-1.55-1.03-2.73-1.03-1.34,0-2.39.4-3.16,1.2-.77.8-1.16,1.96-1.16,3.47v7.84h-3.63V6.91h3.45v2c.6-.72,1.35-1.26,2.26-1.63.91-.37,1.93-.55,3.08-.55,1.95,0,3.52.57,4.7,1.71Z"/>
      <path class="cls-3" d="M257.21,21.6c-1.28-.68-2.27-1.62-2.99-2.83-.72-1.21-1.07-2.58-1.07-4.11s.36-2.89,1.07-4.09c.72-1.2,1.71-2.14,2.98-2.82,1.27-.68,2.71-1.02,4.34-1.02,1.53,0,2.87.31,4.02.93,1.15.62,2.02,1.51,2.6,2.67l-2.79,1.63c-.45-.72-1-1.25-1.67-1.61-.67-.36-1.4-.54-2.19-.54-1.36,0-2.48.44-3.37,1.32-.89.88-1.34,2.06-1.34,3.53s.44,2.65,1.32,3.53c.88.88,2.01,1.32,3.38,1.32.79,0,1.52-.18,2.19-.54.67-.36,1.22-.9,1.67-1.61l2.79,1.63c-.6,1.16-1.48,2.06-2.63,2.69-1.15.63-2.48.94-3.99.94-1.61,0-3.05-.34-4.33-1.02Z"/>
      <path class="cls-3" d="M271.47,3.73c-.45-.42-.67-.93-.67-1.55s.22-1.14.67-1.55c.44-.42,1-.62,1.65-.62s1.21.2,1.66.59c.45.4.67.9.67,1.5,0,.64-.22,1.18-.65,1.61-.44.44-.99.65-1.67.65s-1.21-.21-1.65-.62ZM271.3,6.91h3.63v15.5h-3.63V6.91Z"/>
      <path class="cls-3" d="M290.85,8.38c1.21,1.09,1.81,2.74,1.81,4.95v9.09h-3.43v-1.89c-.45.68-1.08,1.2-1.9,1.55-.82.36-1.81.54-2.98.54s-2.18-.2-3.05-.6c-.87-.4-1.54-.95-2.02-1.65-.48-.71-.71-1.5-.71-2.4,0-1.39.52-2.51,1.55-3.35,1.04-.84,2.67-1.26,4.89-1.26h4.01v-.23c0-1.08-.32-1.92-.97-2.5-.65-.58-1.61-.87-2.89-.87-.87,0-1.73.14-2.57.41-.84.27-1.55.65-2.13,1.13l-1.42-2.64c.81-.62,1.79-1.09,2.93-1.42,1.14-.33,2.35-.49,3.63-.49,2.28,0,4.03.55,5.24,1.64ZM287.54,19.35c.71-.42,1.2-1.01,1.49-1.79v-1.8h-3.75c-2.09,0-3.13.69-3.13,2.06,0,.66.26,1.18.78,1.57.52.39,1.25.58,2.18.58s1.72-.21,2.42-.62Z"/>
      <path class="cls-3" d="M123.06,50.64c-1.2-.64-2.14-1.53-2.82-2.67-.68-1.14-1.01-2.43-1.01-3.87s.34-2.73,1.01-3.86c.67-1.13,1.61-2.01,2.8-2.65,1.19-.64,2.56-.96,4.09-.96,1.44,0,2.7.29,3.79.87,1.08.58,1.9,1.42,2.45,2.52l-2.62,1.53c-.42-.67-.94-1.18-1.57-1.52-.63-.34-1.32-.51-2.07-.51-1.28,0-2.33.41-3.17,1.24-.84.83-1.26,1.94-1.26,3.32s.41,2.49,1.25,3.32c.83.83,1.89,1.24,3.19,1.24.75,0,1.44-.17,2.07-.51.63-.34,1.15-.84,1.57-1.52l2.62,1.53c-.56,1.09-1.39,1.94-2.47,2.53-1.08.59-2.34.89-3.76.89-1.51,0-2.87-.32-4.08-.96Z"/>
      <path class="cls-3" d="M138.67,50.64c-1.19-.64-2.11-1.53-2.78-2.67-.67-1.14-1-2.43-1-3.87s.33-2.73,1-3.86c.67-1.13,1.59-2.01,2.78-2.65,1.19-.64,2.52-.96,3.99-.96s2.83.32,4.02.96c1.18.64,2.11,1.52,2.77,2.65.67,1.13,1,2.42,1,3.86s-.33,2.73-1,3.87c-.67,1.14-1.59,2.03-2.77,2.67-1.19.64-2.53.96-4.02.96s-2.81-.32-3.99-.96ZM145.78,47.41c.82-.84,1.23-1.94,1.23-3.31s-.41-2.47-1.23-3.31-1.86-1.26-3.12-1.26-2.29.42-3.1,1.26-1.22,1.94-1.22,3.31.41,2.47,1.22,3.31,1.85,1.26,3.1,1.26,2.3-.42,3.12-1.26Z"/>
      <path class="cls-3" d="M176.55,38.23c1.08,1.07,1.61,2.67,1.61,4.8v8.37h-3.42v-7.93c0-1.28-.28-2.24-.85-2.89-.57-.65-1.38-.97-2.43-.97-1.15,0-2.07.38-2.76,1.13-.69.76-1.04,1.84-1.04,3.24v7.41h-3.42v-7.93c0-1.28-.28-2.24-.85-2.89-.56-.65-1.38-.97-2.43-.97-1.17,0-2.09.37-2.78,1.12-.68.75-1.03,1.83-1.03,3.25v7.41h-3.42v-14.6h3.25v1.86c.55-.66,1.23-1.16,2.05-1.5.82-.35,1.73-.52,2.74-.52,1.09,0,2.06.2,2.91.61.85.41,1.52,1.02,2.01,1.82.6-.77,1.38-1.36,2.32-1.79.95-.43,2-.64,3.14-.64,1.84,0,3.3.53,4.38,1.6Z"/>
      <path class="cls-3" d="M202.83,46.97h-9.57l-1.89,4.43h-3.67l8.61-19.14h3.5l8.64,19.14h-3.72l-1.91-4.43ZM201.65,44.18l-3.61-8.37-3.58,8.37h7.19Z"/>
      <path class="cls-3" d="M219.21,50.61c-.4.33-.89.57-1.46.74-.57.16-1.18.25-1.82.25-1.6,0-2.84-.42-3.72-1.26-.87-.84-1.31-2.06-1.31-3.66v-7.03h-2.41v-2.73h2.41v-3.34h3.42v3.34h3.91v2.73h-3.91v6.95c0,.71.17,1.25.52,1.63.35.37.85.56,1.5.56.77,0,1.4-.2,1.92-.6l.96,2.43Z"/>
      <path class="cls-3" d="M222.19,33.8c-.42-.39-.63-.88-.63-1.46s.21-1.07.63-1.46c.42-.39.94-.59,1.56-.59s1.14.19,1.56.56c.42.37.63.84.63,1.41,0,.6-.2,1.11-.62,1.52-.41.41-.93.62-1.57.62s-1.14-.2-1.56-.59ZM222.03,36.8h3.42v14.6h-3.42v-14.6Z"/>
      <path class="cls-3" d="M238.71,50.61c-.4.33-.89.57-1.46.74-.57.16-1.18.25-1.82.25-1.6,0-2.84-.42-3.72-1.26-.87-.84-1.31-2.06-1.31-3.66v-7.03h-2.41v-2.73h2.41v-3.34h3.42v3.34h3.91v2.73h-3.91v6.95c0,.71.17,1.25.52,1.63.35.37.85.56,1.5.56.77,0,1.4-.2,1.92-.6l.96,2.43Z"/>
      <path class="cls-3" d="M255.66,36.8v14.6h-3.25v-1.86c-.55.66-1.23,1.16-2.05,1.52-.82.36-1.71.53-2.65.53-1.95,0-3.49-.54-4.61-1.63-1.12-1.08-1.68-2.69-1.68-4.83v-8.34h3.42v7.88c0,1.31.3,2.29.89,2.94.59.65,1.44.97,2.53.97,1.22,0,2.19-.38,2.91-1.14.72-.76,1.08-1.85,1.08-3.27v-7.38h3.42Z"/>
      <path class="cls-3" d="M274.45,31.11v20.29h-3.28v-1.89c-.56.69-1.26,1.21-2.09,1.56s-1.75.52-2.75.52c-1.4,0-2.67-.31-3.79-.93-1.12-.62-2-1.5-2.64-2.64-.64-1.14-.96-2.45-.96-3.92s.32-2.78.96-3.91c.64-1.13,1.52-2.01,2.64-2.63,1.12-.62,2.38-.93,3.79-.93.97,0,1.85.16,2.65.49s1.49.82,2.05,1.48v-7.49h3.42ZM268.95,48.11c.66-.37,1.18-.91,1.56-1.6s.57-1.49.57-2.41-.19-1.71-.57-2.41c-.38-.69-.9-1.23-1.56-1.6-.66-.37-1.39-.56-2.21-.56s-1.56.19-2.22.56c-.66.37-1.18.91-1.56,1.6-.38.69-.57,1.49-.57,2.41s.19,1.71.57,2.41.9,1.23,1.56,1.6,1.39.56,2.22.56,1.56-.19,2.21-.56Z"/>
      <path class="cls-3" d="M292.61,45.19h-11.46c.2,1.08.72,1.93,1.57,2.56.85.63,1.9.94,3.16.94,1.6,0,2.93-.53,3.97-1.59l1.83,2.11c-.66.78-1.49,1.38-2.49,1.78-1,.4-2.13.6-3.39.6-1.6,0-3.02-.32-4.24-.96-1.22-.64-2.16-1.53-2.83-2.67-.67-1.14-1-2.43-1-3.87s.32-2.7.97-3.84c.65-1.14,1.55-2.03,2.69-2.67,1.15-.64,2.44-.96,3.88-.96s2.69.31,3.82.94c1.12.63,2,1.51,2.62,2.65.63,1.14.94,2.46.94,3.95,0,.24-.02.57-.05,1.01ZM282.5,40.34c-.76.65-1.22,1.51-1.38,2.58h8.29c-.15-1.06-.59-1.91-1.34-2.57s-1.68-.98-2.79-.98-2.02.32-2.78.97Z"/>
    </g>
    <g>
      <path class="cls-2" d="M427.99,40.27l1.79-39.6h-12.13l1.79,39.6h8.55ZM422.02,55.96c3.74-1.02,5.52-1.76,8.45-3.83.15-.1.02-.33-.15-.25-3.28,1.45-5.21,1.58-9.08,1.81-.07,0-.09-.08-.03-.09,3.82-.94,6.14-1.93,9.23-4.12.11-.08.01-.25-.11-.19-3.41,1.52-5.85,1.89-9.74,2.02-.07,0-.08-.08-.02-.09,3.23-.49,6.15-1.72,8.75-3.69.11-.08,0-.24-.11-.19-2.89,1.33-5.93,1.83-9.11,1.58-.06,0-.07-.08-.02-.09,2.77-.59,5.24-1.34,7.5-2.76.05-.03.05-.1,0-.13-1.29-.85-2.86-1.28-4.52-1.13-4,.38-6.81,4.18-6.14,8.14.65,3.85,4.14,6.38,7.98,5.7,2.56-.45,4.52-2.15,5.36-4.34.02-.06-.04-.12-.1-.09-2.5,1.18-5.1,1.75-8.14,1.82-.07,0-.1-.07-.03-.09ZM398.74,23.94c-4.51-.95-9.61-3.53-9.61-7.93v-.07c0-3.02,1.78-6.56,7.92-6.56,2.81,0,7.71,1.95,9.25,5.61l8.8-5.89c-4.29-6.47-10.69-9.09-17.38-9.09-5.06,0-10.03,1.75-13.59,4.94V.68h-32.95l-12.44,22.44-10.92-22.44h-12.48l17.15,33.18-13.47,24.23h12.48l22.25-39.78v39.78h30.38v-3.25c3.69,2.62,7.97,3.93,12.2,3.93,9.38,0,18.69-5.97,19.56-15.64.51-12.15-8.22-17.51-17.16-19.18ZM386.52,42.77l-6.43,4.92h-15.57v-12.82h11v-10.4h-11v-13.32h15.35c-.5,1.37-.82,2.84-.91,4.42-.15,11.35,8.22,17.32,16.29,18.55,4.24.47,9.89,3.19,9.89,8.27,0,6.38-13.32,8.4-18.62.37Z"/>
      <g>
        <g>
          <path class="cls-2" d="M327.59,68.76v-1.06h13.4s0,1.06,0,1.06h-13.4Z"/>
          <path class="cls-2" d="M404.81,68.76v-1.06h13.4s0,1.06,0,1.06h-13.4Z"/>
        </g>
        <g>
          <path class="cls-2" d="M347.33,71.4h-1.06v-6.52h1.06v6.52Z"/>
          <path class="cls-2" d="M354.13,64.88c1.27,0,2.44.63,2.44,2.05v2.45c0,1.42-1.17,2.02-2.44,2.02h-2.34v-6.52h2.34ZM354.13,70.33c.73,0,1.37-.27,1.37-.95v-2.45c0-.69-.64-.99-1.37-.99h-1.28v4.38h1.28Z"/>
          <path class="cls-2" d="M361.93,71.4h-1.06v-6.52h1.06v6.52Z"/>
          <path class="cls-2" d="M366.21,66.9c0-1.41,1.31-2.11,2.63-2.11s2.64.7,2.64,2.11v2.48c0,1.41-1.33,2.12-2.64,2.12s-2.63-.71-2.63-2.12v-2.48ZM367.27,69.37c0,.7.78,1.06,1.57,1.06s1.58-.36,1.58-1.06v-2.45c0-.75-.79-1.06-1.58-1.06-.79,0-1.57.33-1.57,1.06v2.45Z"/>
          <path class="cls-2" d="M375.76,64.88h1.19l1.79,4.23,1.81-4.23h1.2v6.52h-1.07v-4.5l-1.51,3.59h-.84l-1.52-3.59v4.5h-1.06v-6.52Z"/>
          <path class="cls-2" d="M391.4,71.4h-1.11l-.64-1.69h-2.34l-.59,1.69h-1.14l2.35-6.52h1.11l2.36,6.52ZM388.46,65.96l-.27,1.05-.52,1.63h1.61l-.53-1.65-.25-1.03h-.04Z"/>
          <path class="cls-2" d="M397.29,67.53c1.14.21,2.41.62,2.32,2.14-.06,1.24-1.24,1.82-2.43,1.82-.99,0-1.98-.53-2.44-1.57l.98-.44c.29.63.87.95,1.48.95.66,0,1.3-.27,1.33-.84.05-.74-.67-.88-1.47-1.04-1.07-.21-2.2-.62-2.21-1.91.07-1.19,1.2-1.84,2.34-1.84.98,0,1.9.38,2.35,1.41l-.97.43c-.28-.61-.78-.77-1.38-.77-.64,0-1.27.29-1.27.85s.68.69,1.37.82Z"/>
        </g>
      </g>
    </g>
    <g>
      <path class="cls-3" d="M121.27,69.85c-.64-.35-1.14-.83-1.5-1.44-.36-.61-.54-1.3-.54-2.07s.18-1.46.55-2.07c.37-.61.87-1.09,1.51-1.44.64-.35,1.35-.52,2.15-.52.64,0,1.23.11,1.76.34.53.22.98.55,1.34.98l-.94.88c-.57-.61-1.27-.92-2.1-.92-.54,0-1.02.12-1.45.35s-.76.56-1,.98c-.24.42-.36.89-.36,1.42s.12,1.01.36,1.42c.24.42.57.74,1,.98.43.24.91.35,1.45.35.83,0,1.53-.31,2.1-.93l.94.9c-.37.43-.82.75-1.35.97-.53.22-1.12.34-1.77.34-.79,0-1.51-.17-2.15-.52Z"/>
      <path class="cls-3" d="M134.42,69.85c-.64-.35-1.15-.83-1.51-1.45-.37-.62-.55-1.31-.55-2.07s.18-1.45.55-2.07c.37-.62.87-1.1,1.51-1.45.64-.35,1.36-.52,2.16-.52s1.52.17,2.16.52c.64.35,1.15.83,1.51,1.44.37.61.55,1.3.55,2.07s-.18,1.46-.55,2.07c-.37.61-.87,1.09-1.51,1.44-.64.35-1.36.52-2.16.52s-1.52-.17-2.16-.52ZM137.99,68.74c.42-.24.75-.56.99-.99.24-.42.36-.9.36-1.42s-.12-1-.36-1.42c-.24-.42-.57-.75-.99-.99-.42-.24-.89-.35-1.41-.35s-.99.12-1.41.35-.75.56-.99.99c-.24.42-.36.9-.36,1.42s.12.99.36,1.42c.24.42.57.75.99.99.42.24.89.35,1.41.35s.99-.12,1.41-.35Z"/>
      <path class="cls-3" d="M154.47,62.41v7.85h-1.2l-4.33-5.31v5.31h-1.45v-7.85h1.2l4.33,5.31v-5.31h1.45Z"/>
      <path class="cls-3" d="M168.84,62.41l-3.42,7.85h-1.43l-3.43-7.85h1.58l2.61,6.05,2.63-6.05h1.46Z"/>
      <path class="cls-3" d="M180.69,69.03v1.22h-5.88v-7.85h5.73v1.22h-4.27v2.04h3.79v1.2h-3.79v2.16h4.43Z"/>
      <path class="cls-3" d="M194.44,62.41v7.85h-1.2l-4.33-5.31v5.31h-1.45v-7.85h1.2l4.33,5.31v-5.31h1.45Z"/>
      <path class="cls-3" d="M203.17,69.85c-.64-.35-1.14-.83-1.5-1.44-.36-.61-.54-1.3-.54-2.07s.18-1.46.55-2.07c.37-.61.87-1.09,1.51-1.44.64-.35,1.35-.52,2.15-.52.64,0,1.23.11,1.76.34.53.22.98.55,1.34.98l-.94.88c-.57-.61-1.27-.92-2.1-.92-.54,0-1.02.12-1.45.35s-.76.56-1,.98c-.24.42-.36.89-.36,1.42s.12,1.01.36,1.42c.24.42.57.74,1,.98.43.24.91.35,1.45.35.83,0,1.53-.31,2.1-.93l.94.9c-.37.43-.82.75-1.35.97-.53.22-1.12.34-1.77.34-.79,0-1.51-.17-2.15-.52ZM203.76,72.58l.26-.66c.23.12.49.18.76.18.4,0,.59-.13.59-.4,0-.11-.05-.2-.15-.27s-.25-.1-.45-.1h-.35l.3-1.14h.76l-.16.63c.32.04.56.14.73.31.16.17.25.38.25.63,0,.32-.14.58-.42.77-.28.2-.65.29-1.11.29-.4,0-.75-.08-1.03-.24Z"/>
      <path class="cls-3" d="M219.9,68.44h-3.92l-.77,1.82h-1.5l3.53-7.85h1.43l3.54,7.85h-1.52l-.78-1.82ZM218.27,61.66c-.14-.07-.31-.19-.51-.34-.12-.1-.22-.17-.3-.22-.08-.05-.16-.07-.23-.07-.16,0-.29.06-.39.18-.1.12-.16.28-.16.49h-.75c0-.46.12-.82.34-1.09.22-.27.51-.41.87-.41.19,0,.35.04.49.11.14.07.31.19.51.34.12.1.22.17.3.22.08.05.16.07.23.07.16,0,.29-.05.39-.17.1-.11.16-.27.16-.47h.75c-.02.44-.13.8-.35,1.07-.22.27-.5.4-.86.4-.19,0-.35-.04-.49-.11ZM219.42,67.3l-1.48-3.43-1.47,3.43h2.95Z"/>
      <path class="cls-3" d="M229.74,69.85c-.64-.35-1.15-.83-1.51-1.45-.37-.62-.55-1.31-.55-2.07s.18-1.45.55-2.07c.37-.62.87-1.1,1.51-1.45.64-.35,1.36-.52,2.16-.52s1.52.17,2.16.52c.64.35,1.15.83,1.51,1.44.37.61.55,1.3.55,2.07s-.18,1.46-.55,2.07c-.37.61-.87,1.09-1.51,1.44-.64.35-1.36.52-2.16.52s-1.52-.17-2.16-.52ZM233.32,68.74c.42-.24.75-.56.99-.99.24-.42.36-.9.36-1.42s-.12-1-.36-1.42c-.24-.42-.57-.75-.99-.99-.42-.24-.89-.35-1.41-.35s-.99.12-1.41.35-.75.56-.99.99c-.24.42-.36.9-.36,1.42s.12.99.36,1.42c.24.42.57.75.99.99.42.24.89.35,1.41.35s.99-.12,1.41-.35Z"/>
      <path class="cls-3" d="M256.18,69.02v1.23h-5.78v-.98l3.12-2.96c.35-.34.59-.63.71-.88.12-.25.19-.5.19-.74,0-.37-.12-.65-.37-.84-.25-.2-.61-.29-1.09-.29-.8,0-1.41.27-1.84.82l-1.02-.79c.31-.41.72-.73,1.24-.96s1.1-.34,1.74-.34c.85,0,1.53.2,2.04.61.51.4.76.95.76,1.65,0,.43-.09.82-.27,1.2s-.52.8-1.03,1.28l-2.1,1.99h3.7Z"/>
      <path class="cls-3" d="M263.72,69.89c-.49-.32-.88-.78-1.17-1.39-.28-.61-.43-1.33-.43-2.17s.14-1.56.43-2.17c.28-.61.67-1.07,1.17-1.39.49-.32,1.05-.48,1.68-.48s1.19.16,1.69.48.89.78,1.17,1.39c.28.61.43,1.33.43,2.17s-.14,1.56-.43,2.17c-.28.61-.67,1.07-1.17,1.39s-1.06.48-1.69.48-1.19-.16-1.68-.48ZM266.73,68.41c.32-.46.49-1.15.49-2.07s-.16-1.61-.49-2.07-.77-.7-1.33-.7-.99.23-1.32.7-.49,1.15-.49,2.07.16,1.61.49,2.07.76.7,1.32.7,1-.23,1.33-.7Z"/>
      <path class="cls-3" d="M280.45,69.02v1.23h-5.78v-.98l3.12-2.96c.35-.34.59-.63.71-.88.12-.25.19-.5.19-.74,0-.37-.12-.65-.37-.84-.25-.2-.61-.29-1.09-.29-.8,0-1.41.27-1.84.82l-1.02-.79c.31-.41.72-.73,1.24-.96s1.1-.34,1.74-.34c.85,0,1.53.2,2.04.61.51.4.76.95.76,1.65,0,.43-.09.82-.27,1.2s-.52.8-1.03,1.28l-2.1,1.99h3.7Z"/>
      <path class="cls-3" d="M291.35,65.71c.41.2.73.48.96.84.23.37.35.79.35,1.27,0,.51-.13.95-.38,1.34-.25.38-.6.68-1.03.89-.43.21-.92.31-1.46.31-1.08,0-1.91-.34-2.5-1.01-.59-.67-.89-1.64-.89-2.89,0-.88.16-1.63.48-2.26.32-.62.77-1.1,1.35-1.42s1.25-.49,2.01-.49c.4,0,.78.04,1.14.13.35.09.66.21.92.38l-.54,1.1c-.39-.25-.89-.38-1.49-.38-.75,0-1.34.23-1.77.7s-.64,1.13-.64,2.01h0c.23-.26.53-.46.89-.6.36-.14.76-.21,1.21-.21.52,0,.98.1,1.39.3ZM290.82,68.86c.28-.24.43-.57.43-.97s-.14-.74-.43-.98c-.28-.24-.66-.36-1.14-.36s-.85.13-1.15.38c-.3.26-.44.58-.44.97s.14.7.43.95c.29.25.69.38,1.19.38.46,0,.83-.12,1.11-.36Z"/>
    </g>
  </g>
  <g>
    <path class="cls-4" d="M42.13,72.81h-17.68S57,0,57,0h16.64s32.45,72.81,32.45,72.81h-17.27s-6.45-15.6-6.45-15.6h-33.81s-6.45,15.6-6.45,15.6ZM76.97,44.41l-11.55-27.88-11.55,27.88h23.09Z"/>
    <path class="cls-1" d="M16.85,72.81H0V0h16.85v72.81Z"/>
  </g>
</svg>
