<?xml version="1.0" encoding="UTF-8"?>
<svg id="Layer_1" data-name="Layer 1" xmlns="http://www.w3.org/2000/svg" viewBox="0 0 95.77 16.2">
  <defs>
    <style>
      .cls-1 {
        fill: #fff;
      }
    </style>
  </defs>
  <g>
    <g>
      <path class="cls-1" d="M26.86.46h.84v4.52h-.84V.46Z"/>
      <path class="cls-1" d="M31.85,1.88c.26.25.39.63.39,1.13v1.98h-.81v-1.87c0-.3-.07-.53-.21-.68-.14-.15-.34-.23-.61-.23-.3,0-.53.09-.7.27-.17.18-.26.44-.26.77v1.74h-.81V1.54h.77v.45c.13-.16.3-.28.5-.36.2-.08.43-.12.68-.12.43,0,.78.13,1.05.38Z"/>
      <path class="cls-1" d="M35.34,4.8c-.09.08-.21.14-.35.17-.14.04-.28.06-.43.06-.38,0-.67-.1-.88-.3s-.31-.49-.31-.87v-1.66h-.57v-.65h.57v-.79h.81v.79h.92v.65h-.92v1.64c0,.17.04.3.12.38.08.09.2.13.35.13.18,0,.33-.05.45-.14l.23.57Z"/>
      <path class="cls-1" d="M39.12,3.52h-2.71c.05.25.17.46.37.6.2.15.45.22.75.22.38,0,.69-.12.94-.37l.43.5c-.15.19-.35.33-.59.42-.24.09-.5.14-.8.14-.38,0-.71-.08-1-.23-.29-.15-.51-.36-.67-.63-.16-.27-.24-.57-.24-.91s.08-.64.23-.91c.15-.27.36-.48.64-.63.27-.15.58-.23.92-.23s.64.07.9.22c.26.15.47.36.62.63.15.27.22.58.22.93,0,.06,0,.14-.01.24ZM36.73,2.37c-.18.15-.29.36-.33.61h1.96c-.03-.25-.14-.45-.32-.61s-.4-.23-.66-.23-.48.08-.66.23Z"/>
      <path class="cls-1" d="M39.91.19h.81v4.79h-.81V.19Z"/>
      <path class="cls-1" d="M41.81.83c-.1-.09-.15-.21-.15-.35s.05-.25.15-.35c.1-.09.22-.14.37-.14s.27.04.37.13c.1.09.15.2.15.33,0,.14-.05.26-.15.36-.1.1-.22.15-.37.15s-.27-.05-.37-.14ZM41.77,1.54h.81v3.45h-.81V1.54Z"/>
      <path class="cls-1" d="M47.06,1.54v2.93c0,1.21-.62,1.82-1.86,1.82-.33,0-.65-.04-.94-.13s-.54-.21-.74-.36l.36-.61c.15.12.34.22.57.3.23.08.46.11.7.11.38,0,.66-.09.83-.26s.26-.43.26-.79v-.18c-.14.15-.31.26-.5.34-.2.08-.42.12-.65.12-.33,0-.62-.07-.89-.21-.26-.14-.47-.34-.63-.59-.15-.25-.23-.54-.23-.87s.08-.62.23-.87c.15-.25.36-.45.63-.58.26-.14.56-.21.89-.21.25,0,.48.04.68.12.2.08.38.21.51.37v-.46h.77ZM45.97,3.87c.2-.18.29-.42.29-.71s-.1-.52-.29-.7-.45-.27-.75-.27-.56.09-.76.27c-.2.18-.29.42-.29.7s.1.53.29.71c.2.18.45.27.76.27s.56-.09.75-.27Z"/>
      <path class="cls-1" d="M51.35,3.52h-2.71c.05.25.17.46.37.6.2.15.45.22.75.22.38,0,.69-.12.94-.37l.43.5c-.15.19-.35.33-.59.42-.24.09-.5.14-.8.14-.38,0-.71-.08-1-.23-.29-.15-.51-.36-.67-.63-.16-.27-.24-.57-.24-.91s.08-.64.23-.91c.15-.27.36-.48.64-.63.27-.15.58-.23.92-.23s.64.07.9.22c.26.15.47.36.62.63.15.27.22.58.22.93,0,.06,0,.14-.01.24ZM50.17,1.07l-.57-.48-.57.48h-.67l.87-.88h.74l.87.88h-.67ZM48.96,2.37c-.18.15-.29.36-.33.61h1.96c-.03-.25-.14-.45-.32-.61s-.4-.23-.66-.23-.48.08-.66.23Z"/>
      <path class="cls-1" d="M55.14,1.88c.26.25.39.63.39,1.13v1.98h-.81v-1.87c0-.3-.07-.53-.21-.68-.14-.15-.34-.23-.61-.23-.3,0-.53.09-.7.27-.17.18-.26.44-.26.77v1.74h-.81V1.54h.77v.45c.13-.16.3-.28.5-.36.2-.08.43-.12.68-.12.43,0,.78.13,1.05.38Z"/>
      <path class="cls-1" d="M57.21,4.8c-.28-.15-.51-.36-.66-.63-.16-.27-.24-.57-.24-.91s.08-.64.24-.91c.16-.27.38-.48.66-.63.28-.15.6-.23.97-.23.34,0,.64.07.89.21.26.14.45.34.58.59l-.62.36c-.1-.16-.22-.28-.37-.36-.15-.08-.31-.12-.49-.12-.3,0-.55.1-.75.29-.2.2-.3.46-.3.78s.1.59.29.78c.2.2.45.29.75.29.18,0,.34-.04.49-.12.15-.08.27-.2.37-.36l.62.36c-.13.26-.33.46-.58.6-.26.14-.55.21-.89.21-.36,0-.68-.08-.96-.23Z"/>
      <path class="cls-1" d="M60.39.83c-.1-.09-.15-.21-.15-.35s.05-.25.15-.35c.1-.09.22-.14.37-.14s.27.04.37.13c.1.09.15.2.15.33,0,.14-.05.26-.15.36-.1.1-.22.15-.37.15s-.27-.05-.37-.14ZM60.35,1.54h.81v3.45h-.81V1.54Z"/>
      <path class="cls-1" d="M64.7,1.86c.27.24.4.61.4,1.1v2.02h-.76v-.42c-.1.15-.24.27-.42.35-.18.08-.4.12-.66.12s-.48-.04-.68-.13c-.19-.09-.34-.21-.45-.37-.11-.16-.16-.33-.16-.53,0-.31.12-.56.35-.75.23-.19.59-.28,1.09-.28h.89v-.05c0-.24-.07-.43-.22-.56s-.36-.19-.64-.19c-.19,0-.38.03-.57.09-.19.06-.35.14-.47.25l-.32-.59c.18-.14.4-.24.65-.32.25-.07.52-.11.81-.11.51,0,.9.12,1.17.36ZM63.96,4.3c.16-.09.27-.22.33-.4v-.4h-.83c-.46,0-.7.15-.7.46,0,.15.06.26.17.35.12.09.28.13.48.13s.38-.05.54-.14Z"/>
      <path class="cls-1" d="M27.37,11.26c-.27-.14-.48-.34-.63-.59-.15-.25-.23-.54-.23-.86s.07-.61.23-.86c.15-.25.36-.45.62-.59.27-.14.57-.21.91-.21.32,0,.6.06.84.19.24.13.42.32.54.56l-.58.34c-.09-.15-.21-.26-.35-.34-.14-.07-.29-.11-.46-.11-.28,0-.52.09-.71.28-.19.18-.28.43-.28.74s.09.55.28.74c.18.18.42.28.71.28.17,0,.32-.04.46-.11.14-.08.26-.19.35-.34l.58.34c-.13.24-.31.43-.55.56-.24.13-.52.2-.84.2-.34,0-.64-.07-.91-.21Z"/>
      <path class="cls-1" d="M30.85,11.26c-.26-.14-.47-.34-.62-.59-.15-.25-.22-.54-.22-.86s.07-.61.22-.86.35-.45.62-.59c.26-.14.56-.21.89-.21s.63.07.89.21c.26.14.47.34.62.59s.22.54.22.86-.07.61-.22.86c-.15.25-.35.45-.62.59-.26.14-.56.21-.89.21s-.62-.07-.89-.21ZM32.43,10.55c.18-.19.27-.43.27-.74s-.09-.55-.27-.74-.41-.28-.69-.28-.51.09-.69.28-.27.43-.27.74.09.55.27.74.41.28.69.28.51-.09.69-.28Z"/>
      <path class="cls-1" d="M39.27,8.5c.24.24.36.59.36,1.07v1.86h-.76v-1.76c0-.28-.06-.5-.19-.64-.13-.14-.31-.22-.54-.22-.26,0-.46.08-.61.25-.15.17-.23.41-.23.72v1.65h-.76v-1.76c0-.28-.06-.5-.19-.64-.13-.14-.31-.22-.54-.22-.26,0-.47.08-.62.25-.15.17-.23.41-.23.72v1.65h-.76v-3.25h.72v.41c.12-.15.27-.26.46-.33.18-.08.39-.12.61-.12.24,0,.46.05.65.14s.34.23.45.4c.13-.17.31-.3.52-.4.21-.1.44-.14.7-.14.41,0,.73.12.97.36Z"/>
      <path class="cls-1" d="M45.12,10.45h-2.13l-.42.99h-.82l1.92-4.26h.78l1.92,4.26h-.83l-.43-.99ZM44.86,9.83l-.8-1.86-.8,1.86h1.6Z"/>
      <path class="cls-1" d="M48.76,11.26c-.09.07-.2.13-.33.16-.13.04-.26.05-.4.05-.36,0-.63-.09-.83-.28s-.29-.46-.29-.82v-1.56h-.54v-.61h.54v-.74h.76v.74h.87v.61h-.87v1.55c0,.16.04.28.12.36.08.08.19.12.33.12.17,0,.31-.04.43-.13l.21.54Z"/>
      <path class="cls-1" d="M49.42,7.52c-.09-.09-.14-.2-.14-.33s.05-.24.14-.33c.09-.09.21-.13.35-.13s.25.04.35.12c.09.08.14.19.14.31,0,.13-.05.25-.14.34-.09.09-.21.14-.35.14s-.25-.04-.35-.13ZM49.39,8.19h.76v3.25h-.76v-3.25Z"/>
      <path class="cls-1" d="M53.1,11.26c-.09.07-.2.13-.33.16-.13.04-.26.05-.4.05-.36,0-.63-.09-.83-.28s-.29-.46-.29-.82v-1.56h-.54v-.61h.54v-.74h.76v.74h.87v.61h-.87v1.55c0,.16.04.28.12.36.08.08.19.12.33.12.17,0,.31-.04.43-.13l.21.54Z"/>
      <path class="cls-1" d="M56.87,8.19v3.25h-.72v-.41c-.12.15-.27.26-.46.34-.18.08-.38.12-.59.12-.43,0-.78-.12-1.02-.36-.25-.24-.37-.6-.37-1.07v-1.86h.76v1.75c0,.29.07.51.2.65.13.14.32.22.56.22.27,0,.49-.08.65-.25.16-.17.24-.41.24-.73v-1.64h.76Z"/>
      <path class="cls-1" d="M61.05,6.92v4.51h-.73v-.42c-.13.15-.28.27-.47.35s-.39.12-.61.12c-.31,0-.59-.07-.84-.21-.25-.14-.45-.33-.59-.59-.14-.25-.21-.54-.21-.87s.07-.62.21-.87c.14-.25.34-.45.59-.58.25-.14.53-.21.84-.21.21,0,.41.04.59.11s.33.18.46.33v-1.67h.76ZM59.83,10.7c.15-.08.26-.2.35-.36s.13-.33.13-.54-.04-.38-.13-.54c-.09-.15-.2-.27-.35-.36-.15-.08-.31-.12-.49-.12s-.35.04-.49.12c-.15.08-.26.2-.35.36-.09.15-.13.33-.13.54s.04.38.13.54.2.27.35.36.31.12.49.12.35-.04.49-.12Z"/>
      <path class="cls-1" d="M65.09,10.05h-2.55c.04.24.16.43.35.57.19.14.42.21.7.21.36,0,.65-.12.88-.35l.41.47c-.15.17-.33.31-.55.4-.22.09-.47.13-.75.13-.36,0-.67-.07-.94-.21-.27-.14-.48-.34-.63-.59-.15-.25-.22-.54-.22-.86s.07-.6.22-.85c.14-.25.34-.45.6-.59.26-.14.54-.21.86-.21s.6.07.85.21c.25.14.44.34.58.59.14.25.21.55.21.88,0,.05,0,.13-.01.23ZM62.84,8.97c-.17.14-.27.34-.31.57h1.84c-.03-.24-.13-.43-.3-.57s-.37-.22-.62-.22-.45.07-.62.22Z"/>
    </g>
    <g>
      <path class="cls-1" d="M95.2,8.96l.4-8.81h-2.7l.4,8.81h1.9ZM93.87,12.45c.83-.23,1.23-.39,1.88-.85.03-.02,0-.07-.03-.06-.73.32-1.16.35-2.02.4-.02,0-.02-.02,0-.02.85-.21,1.37-.43,2.05-.92.02-.02,0-.05-.02-.04-.76.34-1.3.42-2.17.45-.01,0-.02-.02,0-.02.72-.11,1.37-.38,1.95-.82.02-.02,0-.05-.03-.04-.64.3-1.32.41-2.03.35-.01,0-.02-.02,0-.02.62-.13,1.16-.3,1.67-.61.01,0,.01-.02,0-.03-.29-.19-.64-.29-1.01-.25-.89.08-1.51.93-1.37,1.81.15.86.92,1.42,1.77,1.27.57-.1,1-.48,1.19-.97,0-.01,0-.03-.02-.02-.56.26-1.13.39-1.81.41-.02,0-.02-.02,0-.02ZM88.7,5.33c-1-.21-2.14-.78-2.14-1.76v-.02c0-.67.4-1.46,1.76-1.46.63,0,1.72.43,2.06,1.25l1.96-1.31c-.95-1.44-2.38-2.02-3.87-2.02-1.13,0-2.23.39-3.02,1.1V.15h-7.33l-2.77,4.99-2.43-4.99h-2.78l3.82,7.38-3,5.39h2.78l4.95-8.85v8.85h6.76v-.72c.82.58,1.77.87,2.71.87,2.09,0,4.16-1.33,4.35-3.48.11-2.7-1.83-3.89-3.82-4.27ZM85.98,9.51l-1.43,1.1h-3.46v-2.85h2.45v-2.31h-2.45v-2.96h3.41c-.11.3-.18.63-.2.98-.03,2.52,1.83,3.85,3.62,4.13.94.11,2.2.71,2.2,1.84,0,1.42-2.96,1.87-4.14.08Z"/>
      <g>
        <g>
          <path class="cls-1" d="M72.87,15.29v-.24h2.98s0,.24,0,.24h-2.98Z"/>
          <path class="cls-1" d="M90.05,15.29v-.24h2.98s0,.24,0,.24h-2.98Z"/>
        </g>
        <g>
          <path class="cls-1" d="M77.26,15.88h-.24v-1.45h.24v1.45Z"/>
          <path class="cls-1" d="M78.77,14.43c.28,0,.54.14.54.46v.54c0,.32-.26.45-.54.45h-.52v-1.45h.52ZM78.77,15.65c.16,0,.31-.06.31-.21v-.54c0-.15-.14-.22-.31-.22h-.28v.97h.28Z"/>
          <path class="cls-1" d="M80.51,15.88h-.24v-1.45h.24v1.45Z"/>
          <path class="cls-1" d="M81.46,14.88c0-.31.29-.47.59-.47s.59.16.59.47v.55c0,.31-.29.47-.59.47s-.59-.16-.59-.47v-.55ZM81.7,15.43c0,.16.17.24.35.24s.35-.08.35-.24v-.54c0-.17-.18-.24-.35-.24-.18,0-.35.07-.35.24v.54Z"/>
          <path class="cls-1" d="M83.58,14.43h.26l.4.94.4-.94h.27v1.45h-.24v-1l-.34.8h-.19l-.34-.8v1h-.24v-1.45Z"/>
          <path class="cls-1" d="M87.06,15.88h-.25l-.14-.38h-.52l-.13.38h-.25l.52-1.45h.25l.52,1.45ZM86.41,14.67l-.06.23-.12.36h.36l-.12-.37-.06-.23h0Z"/>
          <path class="cls-1" d="M88.37,15.02c.25.05.54.14.52.48-.01.28-.28.41-.54.41-.22,0-.44-.12-.54-.35l.22-.1c.06.14.19.21.33.21.15,0,.29-.06.3-.19.01-.16-.15-.2-.33-.23-.24-.05-.49-.14-.49-.43.02-.26.27-.41.52-.41.22,0,.42.08.52.31l-.22.1c-.06-.14-.17-.17-.31-.17-.14,0-.28.07-.28.19s.15.15.31.18Z"/>
        </g>
      </g>
    </g>
    <g>
      <path class="cls-1" d="M26.98,15.54c-.14-.08-.25-.18-.33-.32-.08-.14-.12-.29-.12-.46s.04-.33.12-.46c.08-.14.19-.24.34-.32.14-.08.3-.12.48-.12.14,0,.27.02.39.07.12.05.22.12.3.22l-.21.2c-.13-.14-.28-.2-.47-.2-.12,0-.23.03-.32.08s-.17.12-.22.22c-.05.09-.08.2-.08.32s.03.22.08.32c.05.09.13.17.22.22.09.05.2.08.32.08.18,0,.34-.07.47-.21l.21.2c-.08.09-.18.17-.3.22-.12.05-.25.07-.39.07-.18,0-.34-.04-.48-.12Z"/>
      <path class="cls-1" d="M29.9,15.54c-.14-.08-.26-.18-.34-.32-.08-.14-.12-.29-.12-.46s.04-.32.12-.46c.08-.14.19-.24.34-.32.14-.08.3-.12.48-.12s.34.04.48.12c.14.08.26.18.34.32.08.14.12.29.12.46s-.04.32-.12.46c-.08.14-.19.24-.34.32-.14.08-.3.12-.48.12s-.34-.04-.48-.12ZM30.7,15.29c.09-.05.17-.13.22-.22.05-.09.08-.2.08-.32s-.03-.22-.08-.32c-.05-.09-.13-.17-.22-.22-.09-.05-.2-.08-.31-.08s-.22.03-.31.08-.17.13-.22.22c-.05.09-.08.2-.08.32s.03.22.08.32c.05.09.13.17.22.22.09.05.2.08.31.08s.22-.03.31-.08Z"/>
      <path class="cls-1" d="M34.36,13.88v1.75h-.27l-.96-1.18v1.18h-.32v-1.75h.27l.96,1.18v-1.18h.32Z"/>
      <path class="cls-1" d="M37.56,13.88l-.76,1.75h-.32l-.76-1.75h.35l.58,1.35.59-1.35h.32Z"/>
      <path class="cls-1" d="M40.19,15.36v.27h-1.31v-1.75h1.27v.27h-.95v.45h.84v.27h-.84v.48h.98Z"/>
      <path class="cls-1" d="M43.25,13.88v1.75h-.27l-.96-1.18v1.18h-.32v-1.75h.27l.96,1.18v-1.18h.32Z"/>
      <path class="cls-1" d="M45.19,15.54c-.14-.08-.25-.18-.33-.32-.08-.14-.12-.29-.12-.46s.04-.33.12-.46c.08-.14.19-.24.34-.32.14-.08.3-.12.48-.12.14,0,.27.02.39.07.12.05.22.12.3.22l-.21.2c-.13-.14-.28-.2-.47-.2-.12,0-.23.03-.32.08s-.17.12-.22.22c-.05.09-.08.2-.08.32s.03.22.08.32c.05.09.13.17.22.22.09.05.2.08.32.08.18,0,.34-.07.47-.21l.21.2c-.08.09-.18.17-.3.22-.12.05-.25.07-.39.07-.18,0-.34-.04-.48-.12ZM45.32,16.14l.06-.15c.05.03.11.04.17.04.09,0,.13-.03.13-.09,0-.02-.01-.04-.03-.06s-.05-.02-.1-.02h-.08l.07-.25h.17l-.03.14c.07,0,.13.03.16.07.04.04.05.08.05.14,0,.07-.03.13-.09.17-.06.04-.14.06-.25.06-.09,0-.17-.02-.23-.05Z"/>
      <path class="cls-1" d="M48.91,15.22h-.87l-.17.4h-.33l.79-1.75h.32l.79,1.75h-.34l-.17-.4ZM48.55,13.72s-.07-.04-.11-.08c-.03-.02-.05-.04-.07-.05-.02-.01-.03-.02-.05-.02-.03,0-.06.01-.09.04-.02.03-.03.06-.04.11h-.17c0-.1.03-.18.08-.24.05-.06.11-.09.19-.09.04,0,.08,0,.11.02.03.02.07.04.11.08.03.02.05.04.07.05.02.01.03.02.05.02.03,0,.06-.01.09-.04.02-.02.03-.06.04-.1h.17c0,.1-.03.18-.08.24-.05.06-.11.09-.19.09-.04,0-.08,0-.11-.02ZM48.81,14.97l-.33-.76-.33.76h.66Z"/>
      <path class="cls-1" d="M51.1,15.54c-.14-.08-.26-.18-.34-.32-.08-.14-.12-.29-.12-.46s.04-.32.12-.46c.08-.14.19-.24.34-.32.14-.08.3-.12.48-.12s.34.04.48.12c.14.08.26.18.34.32.08.14.12.29.12.46s-.04.32-.12.46c-.08.14-.19.24-.34.32-.14.08-.3.12-.48.12s-.34-.04-.48-.12ZM51.9,15.29c.09-.05.17-.13.22-.22.05-.09.08-.2.08-.32s-.03-.22-.08-.32c-.05-.09-.13-.17-.22-.22-.09-.05-.2-.08-.31-.08s-.22.03-.31.08-.17.13-.22.22c-.05.09-.08.2-.08.32s.03.22.08.32c.05.09.13.17.22.22.09.05.2.08.31.08s.22-.03.31-.08Z"/>
      <path class="cls-1" d="M56.99,15.35v.27h-1.29v-.22l.69-.66c.08-.07.13-.14.16-.2.03-.06.04-.11.04-.17,0-.08-.03-.14-.08-.19-.05-.04-.14-.06-.24-.06-.18,0-.31.06-.41.18l-.23-.17c.07-.09.16-.16.28-.21s.24-.08.39-.08c.19,0,.34.04.45.13.11.09.17.21.17.37,0,.09-.02.18-.06.27s-.12.18-.23.28l-.47.44h.82Z"/>
      <path class="cls-1" d="M58.66,15.55c-.11-.07-.2-.17-.26-.31-.06-.14-.09-.3-.09-.48s.03-.35.09-.48c.06-.14.15-.24.26-.31.11-.07.23-.11.37-.11s.26.04.38.11.2.17.26.31.09.3.09.48-.03.35-.09.48c-.06.14-.15.24-.26.31s-.24.11-.38.11-.26-.04-.37-.11ZM59.33,15.22c.07-.1.11-.26.11-.46s-.04-.36-.11-.46-.17-.15-.3-.15-.22.05-.29.15-.11.26-.11.46.04.36.11.46.17.15.29.15.22-.05.3-.15Z"/>
      <path class="cls-1" d="M62.38,15.35v.27h-1.29v-.22l.69-.66c.08-.07.13-.14.16-.2.03-.06.04-.11.04-.17,0-.08-.03-.14-.08-.19-.05-.04-.14-.06-.24-.06-.18,0-.31.06-.41.18l-.23-.17c.07-.09.16-.16.28-.21s.24-.08.39-.08c.19,0,.34.04.45.13.11.09.17.21.17.37,0,.09-.02.18-.06.27s-.12.18-.23.28l-.47.44h.82Z"/>
      <path class="cls-1" d="M64.81,14.62c.09.04.16.11.21.19.05.08.08.18.08.28,0,.11-.03.21-.08.3-.06.09-.13.15-.23.2-.1.05-.2.07-.32.07-.24,0-.43-.07-.56-.22-.13-.15-.2-.36-.2-.64,0-.2.04-.36.11-.5s.17-.24.3-.32.28-.11.45-.11c.09,0,.17,0,.25.03.08.02.15.05.21.08l-.12.24c-.09-.06-.2-.08-.33-.08-.17,0-.3.05-.39.15s-.14.25-.14.45h0c.05-.06.12-.1.2-.13.08-.03.17-.05.27-.05.11,0,.22.02.31.07ZM64.69,15.32c.06-.05.09-.13.09-.22s-.03-.16-.09-.22c-.06-.05-.15-.08-.25-.08s-.19.03-.26.08c-.07.06-.1.13-.1.21s.03.16.1.21c.06.06.15.08.27.08.1,0,.18-.03.25-.08Z"/>
    </g>
  </g>
  <g>
    <path class="cls-1" d="M9.37,16.2h-3.93S12.68,0,12.68,0h3.7s7.22,16.2,7.22,16.2h-3.84s-1.43-3.47-1.43-3.47h-7.52s-1.43,3.47-1.43,3.47ZM17.12,9.88l-2.57-6.2-2.57,6.2h5.14Z"/>
    <path class="cls-1" d="M3.75,16.2H0V0h3.75v16.2Z"/>
  </g>
</svg>